<svg xmlns="http://www.w3.org/2000/svg" viewBox="0 0 80.34 100" fill="currentColor" fill-rule="evenodd"><path d="M39.63 0L39.83 -0.07L40.23 0.51L41.07 2.22L43.18 7.01L44.19 9.06L45.25 10.94L46.8 13.33L49 16.41L51.23 19.32L54.82 23.76L59.59 29.4L59.49 29.5L54.02 29.37L53.85 29.35L53.73 29.23L49 23.59L44.92 18.29L42.02 14.02L40.81 11.97L40 10.41L38.69 12.99L37.5 15.04L34.76 19.15L31.49 23.42L26.5 29.33L25.81 29.44L20.68 29.57L20.76 29.4L25.86 23.42L28.6 20L31.15 16.58L33.37 13.33L35.45 9.91L37.32 6.32L38.69 3.08L39.37 1.03ZM40.33 35.21L40.51 35.08L42.56 35.08L42.74 35.09L42.83 35.21L45.07 41.54L48.14 49.74L57.89 75.04L58.29 75.93L65.87 51.79L68.6 41.88L68.96 40.51L69.09 39.66L68.93 38.97L68.55 38.62L68.03 38.41L67.35 38.27L67.01 38.36L65.13 38.07L61.54 37.83L61.4 37.61L61.4 35.73L61.48 35.56L62.22 35.52L70.09 35.8L73.68 35.76L78.84 35.56L78.86 37.78L78.8 37.83L76.07 37.87L75.38 38.07L74.87 38.41L74.47 38.97L73.95 40L72.6 43.25L69.85 50.94L65.76 63.42L62 75.73L58.83 87.01L58.63 87.07L55.04 87.07L54.87 87.01L53.88 83.93L50.13 74.19L39.53 47.35L39.49 47.28L39.32 47.27L31.41 64.96L28.15 72.48L24.91 80.51L22.63 86.84L22.39 87.07L18.8 87.07L18.58 86.84L14.92 71.11L7.76 42.74L7.05 40.34L6.36 38.8L5.98 38.41L5.64 38.21L5.3 38.08L4.27 37.87L1.37 37.83L1.28 37.61L1.33 35.56L9.91 35.8L14.53 35.76L20.51 35.52L21.37 35.57L21.42 35.73L21.42 37.61L21.37 37.8L17.26 37.87L15.9 38.09L15.56 38.23L14.96 38.8L14.81 39.15L14.77 39.83L14.85 40.51L17.58 52.65L23.08 75.36L23.27 75.21L32.36 54.53ZM3.39 50.6L3.59 50.62L3.64 50.77L5.07 56.58L4.56 58.12L4.22 59.49L3.85 62.22L3.79 64.27L3.87 65.98L4.06 67.35L4.38 68.89L5.26 71.62L5.95 73.16L6.61 74.36L8.14 76.58L9.34 77.95L10.64 79.15L12.01 84.79L12.06 85.13L11.97 85.21L10.09 84.17L8.38 82.96L6.43 81.2L4.56 78.97L3.53 77.44L2.18 74.87L1.31 72.65L0.63 70.26L0.12 67.35L-0.05 65.13L-0.03 62.74L0.28 59.66L0.81 57.09L1.47 54.87L2.33 52.65ZM76.31 50.6L76.41 50.51L76.48 50.6L77.17 51.79L78.02 53.5L78.5 54.7L79.36 57.44L79.71 58.97L80.04 61.03L80.23 63.42L80.21 65.64L79.87 68.72L79.2 71.62L78.16 74.53L77.15 76.58L75.75 78.8L74.26 80.68L72.14 82.77L70.09 84.31L67.69 85.66L66.5 86.19L65.3 86.6L65.17 86.5L65.24 86.15L66.77 80.85L68.21 79.9L69.74 78.65L70.64 77.78L71.83 76.41L72.68 75.21L73.58 73.68L74.24 72.31L74.93 70.43L75.25 69.23L75.61 67.35L75.78 65.47L75.78 63.42L75.6 61.54L75.28 59.66L74.74 57.61L74.33 56.41ZM39.29 75.21L39.32 75.08L39.49 75.07L40.12 79.49L40.99 83.42L41.98 86.67L43.03 89.4L44.24 91.97L45.94 94.87L47.66 97.26L49.55 99.49L49.4 99.66L27.52 99.83L27.41 99.66L28.93 98.12L30.47 96.41L32.87 93.33L34.41 90.94L35.76 88.38L36.97 85.47L37.98 82.22L38.85 78.29Z"/></svg>
